<svg id="Capa_1" enable-background="new 0 0 512 512" height="512" viewBox="0 0 512 512" width="512" xmlns="http://www.w3.org/2000/svg"><path d="m100.484 252.217h316.186c-.967-11.225-7.958-20.726-17.735-25.246 7.899-8.532 10.6-21.194 5.867-32.644-4.038-9.77-12.532-16.345-22.155-18.353-2.535-.529-4.17-2.98-3.686-5.524 1.84-9.657-.97-20.023-8.442-27.503-7.471-7.479-17.835-10.3-27.494-8.47-2.544.482-4.994-1.156-5.52-3.691-1.998-9.625-8.564-18.126-18.33-22.174s-20.42-2.685-28.642 2.704c-2.166 1.419-5.056.844-6.513-1.296-5.532-8.126-14.852-13.465-25.423-13.465-10.436 0-19.657 5.199-25.215 13.149-1.458 2.085-4.295 2.644-6.434 1.267-8.156-5.249-18.66-6.566-28.317-2.61-9.783 4.007-16.384 12.48-18.422 22.097-.537 2.533-2.993 4.161-5.535 3.668-9.651-1.87-20.026.907-27.529 8.355s-10.356 17.803-8.556 27.467c.474 2.546-1.172 4.99-3.709 5.508-9.631 1.968-18.152 8.507-22.231 18.26-4.78 11.43-2.132 24.103 5.731 32.668-9.988 4.567-17.105 14.323-17.896 25.833z" fill="#fff2cf"/><path d="m241.301 238.781c-26.484-36.564-35.627-88.434-32.098-132.707-3.533.125-7.107.868-10.57 2.287-9.783 4.007-16.384 12.48-18.422 22.097-.537 2.533-2.993 4.161-5.535 3.668-9.651-1.87-20.026.907-27.529 8.355s-10.356 17.803-8.557 27.467c.474 2.546-1.172 4.99-3.709 5.508-9.631 1.968-18.153 8.507-22.231 18.26-4.78 11.43-2.132 24.104 5.731 32.668-9.988 4.567-17.106 14.323-17.897 25.833h151.347c-3.764-4.277-7.21-8.853-10.53-13.436z" fill="#ffe1bd"/><path d="m301.968 199.004c-.794 0-1.601-.127-2.395-.394-3.925-1.322-6.036-5.576-4.714-9.501.611-1.813.92-3.716.92-5.654 0-9.755-7.936-17.691-17.691-17.691-7.127 0-13.527 4.242-16.304 10.807-1.614 3.815-6.014 5.601-9.829 3.986-3.815-1.614-5.6-6.015-3.986-9.829 5.13-12.128 16.952-19.964 30.119-19.964 18.026 0 32.691 14.665 32.691 32.691 0 3.569-.574 7.082-1.705 10.441-1.054 3.132-3.975 5.108-7.106 5.108z" fill="#fdd3a6"/><path d="m404.004 260.309h-98.354l-5.508 127.625 5.508 116.565h56.788c12.593 0 23.07-9.683 24.06-22.237z" fill="#ffd6dc"/><path d="m396.202 359.23 7.802-98.921h-98.355l-4.269 98.921z" fill="#ffbfca"/><path d="m130.657 482.263c.99 12.554 11.467 22.237 24.06 22.237h56.788l4.932-120.053-4.932-124.138h-98.355z" fill="#ffd6dc"/><path d="m189.328 359.23h26.106l-3.93-98.92h-98.354l17.507 221.954c.99 12.554 11.467 22.237 24.06 22.237h14.034v-124.694c0-11.364 9.213-20.577 20.577-20.577z" fill="#ffbfca"/><path d="m211.505 260.309h94.145v244.191h-94.145z" fill="#ff7591"/><path d="m211.505 260.309h94.145v98.92h-94.145z" fill="#fe5b70"/><path d="m422.31 318.013h-327.466c-9.359 0-16.946-7.587-16.946-16.946v-59.016c0-9.359 7.587-16.946 16.946-16.946h327.466c9.359 0 16.946 7.587 16.946 16.946v59.016c0 9.359-7.587 16.946-16.946 16.946z" fill="#ff7591"/><g fill="#fff2cf"><path d="m132.881 42.405c.735-2.889.972-5.977.608-9.168-1.274-11.182-10.067-20.289-21.197-21.957-17.214-2.579-30.9 12.602-28.775 28.371.353 2.62-1.376 5.093-3.969 5.611-13.11 2.621-22.886 15.703-19.838 29.965 2.31 10.812 11.586 18.994 22.609 19.855 7.491.585 14.354-2.112 19.315-6.803 2.103-1.988 5.37-1.801 7.256.395 5.032 5.86 12.709 9.382 21.183 8.704 12.048-.964 21.858-10.61 23.001-22.643 1.147-12.076-6.238-22.603-16.829-26.269-2.529-.873-4.024-3.468-3.364-6.061z"/><path d="m482.528 76.376c1.829-1.828 3.412-3.978 4.66-6.428 5.734-11.259 2.047-25.304-8.455-32.329-13.341-8.923-31.302-2.765-37.231 11.167-1.035 2.433-3.785 3.675-6.279 2.795-12.84-4.528-28.251 2.037-32.611 16.39-3.167 10.428.851 21.915 9.846 28.067 6.028 4.122 13.112 5.261 19.621 3.839 2.86-.625 5.68 1.156 6.188 4.04 1.337 7.599 6.135 14.537 13.757 18.281 10.849 5.328 24.211 2.048 31.342-7.711 7.157-9.794 6.187-22.617-1.044-31.18-1.727-2.045-1.687-5.039.206-6.931z"/><circle cx="47.431" cy="158.854" r="25.191"/><circle cx="305.652" cy="32.691" r="25.191"/></g><path d="m128 104.962c-8.857 0-17.092-3.51-23.116-9.554-5.731 4.643-12.934 7.254-20.544 7.254-18.026 0-32.691-14.665-32.691-32.691 0-15.09 10.278-27.825 24.199-31.573-1.237-18.617 13.935-34.905 32.618-34.905 20.12 0 35.778 18.846 32.158 38.62 11.88 4.973 20.068 16.72 20.068 30.158-.001 18.026-14.666 32.691-32.692 32.691zm-22.49-28.846c.132 0 .264.003.396.01 2.683.142 5.086 1.708 6.298 4.106 3.034 6.001 9.086 9.729 15.796 9.729 9.755 0 17.691-7.936 17.691-17.691 0-8.925-6.67-16.471-15.515-17.551-2.411-.295-4.529-1.738-5.686-3.874-1.156-2.136-1.207-4.699-.136-6.878 5.662-11.523-3.096-25.475-15.889-25.475-12.019 0-20.74 12.439-16.632 23.735.844 2.32.492 4.906-.941 6.916s-3.771 3.184-6.231 3.146l-.321-.009h-.002c-9.754 0-17.688 7.936-17.688 17.69 0 9.755 7.936 17.691 17.691 17.691 6.029 0 11.588-3.034 14.871-8.115 1.385-2.145 3.762-3.43 6.298-3.43z"/><path d="m463.017 132.239c-14.715.003-28.036-10.355-31.637-24.606-16.335 2.381-32.29-8.365-36.345-24.304-6.076-23.882 16.775-46.257 40.521-39.547 8.426-16.615 29.784-22.89 45.868-13.329 17.303 10.285 21.166 34.433 7.909 49.629 7.671 10.346 8.708 24.627 1.841 36.178-6.106 10.269-16.996 15.978-28.157 15.979zm-20.908-40.659c2.234 1.493 3.5 4.067 3.316 6.748-.459 6.708 2.839 13.006 8.607 16.435 8.384 4.984 19.262 2.217 24.247-6.168 4.56-7.671 2.682-17.566-4.369-23.015-1.922-1.485-3.005-3.809-2.908-6.235.098-2.427 1.364-4.656 3.398-5.982 10.717-6.986 10.28-23.524-.641-30.016-10.347-6.152-24.196.158-26.425 11.904-.46 2.426-2.085 4.47-4.345 5.465-2.259.996-4.864.814-6.965-.483-13.282-7.681-30.402 3.868-26.452 19.398 2.733 10.742 15.055 16.423 25.034 11.469 2.377-1.475 5.909-.725 7.503.48z"/><path d="m47.431 191.545c-18.026 0-32.691-14.665-32.691-32.691s14.665-32.691 32.691-32.691 32.691 14.665 32.691 32.691-14.666 32.691-32.691 32.691zm0-50.382c-9.755 0-17.691 7.936-17.691 17.691s7.936 17.691 17.691 17.691 17.691-7.936 17.691-17.691-7.937-17.691-17.691-17.691z"/><path d="m305.652 65.382c-18.026 0-32.691-14.665-32.691-32.691s14.665-32.691 32.691-32.691 32.691 14.665 32.691 32.691-14.665 32.691-32.691 32.691zm0-50.382c-9.755 0-17.691 7.936-17.691 17.691s7.936 17.691 17.691 17.691 17.691-7.936 17.691-17.691-7.936-17.691-17.691-17.691z"/><path d="m422.31 217.605h-9.495c2.66-8.429 2.409-17.698-1.081-26.143-4.525-10.948-13.873-19.055-25.007-22.201 1.369-11.489-2.528-23.232-10.9-31.613-8.374-8.382-20.117-12.292-31.602-10.934-3.134-11.137-11.231-20.493-22.175-25.03-10.945-4.537-23.287-3.653-33.38 2.001-7.16-9.088-18.223-14.63-30.07-14.63-11.656 0-22.628 5.418-29.806 14.299-10.009-5.498-22.216-6.352-33.002-1.934-10.963 4.49-19.099 13.813-22.28 24.937-11.481-1.402-23.24 2.456-31.648 10.802-8.407 8.346-12.353 20.073-11.032 31.567-11.147 3.1-20.529 11.167-25.099 22.097-3.615 8.645-3.829 18.171-.984 26.782h-9.903c-13.479 0-24.446 10.966-24.446 24.446v59.016c0 13.479 10.966 24.446 24.446 24.446h15.926l4.751 60.231c.325 4.129 3.936 7.22 8.066 6.887 4.129-.326 7.212-3.937 6.887-8.066l-4.658-59.052h78.188v171.487h-49.288c-8.621 0-15.905-6.732-16.583-15.327l-5.249-66.547c-.325-4.129-3.937-7.22-8.066-6.887-4.129.325-7.212 3.937-6.887 8.066l5.249 66.547c1.287 16.345 15.14 29.148 31.535 29.148h207.721c16.395 0 30.248-12.803 31.537-29.147l12.41-157.34h15.926c13.479 0 24.446-10.966 24.446-24.446v-59.016c-.001-13.48-10.968-24.446-24.447-24.446zm-302.74-20.995c3.487-8.339 11.584-13.937 20.63-14.261 5.012-.18 8.496-5.353 6.777-10.065-3.102-8.503-.961-18.113 5.453-24.48 6.416-6.367 16.04-8.437 24.52-5.274 4.7 1.754 9.897-1.692 10.115-6.703.391-9.043 6.048-17.1 14.412-20.526 8.213-3.365 17.787-1.698 24.388 4.248 3.661 3.296 9.639 2.12 11.777-2.318 3.854-8.004 12.081-13.175 20.958-13.175 9.039 0 17.327 5.311 21.117 13.531 2.1 4.555 8.216 5.772 11.9 2.369 6.648-6.142 16.339-7.875 24.689-4.414s13.973 11.542 14.326 20.586c.196 5.011 5.38 8.481 10.086 6.745 8.493-3.127 18.108-1.018 24.497 5.377 6.388 6.395 8.488 16.012 5.351 24.502-1.738 4.705 1.723 9.893 6.735 10.094 9.044.362 17.119 5.994 20.571 14.347 2.769 6.7 2.188 14.256-1.32 20.413h-275.408c-3.783-6.275-4.459-14.098-1.574-20.996zm99.435 128.903h79.145v171.487h-79.145zm160.016 156.16c-.678 8.594-7.962 15.327-16.583 15.327h-49.288v-171.487h78.189zm52.735-180.606c0 5.208-4.237 9.446-9.446 9.446h-327.466c-5.208 0-9.446-4.237-9.446-9.446v-59.016c0-5.208 4.237-9.446 9.446-9.446h327.466c5.208 0 9.446 4.237 9.446 9.446z"/><path d="m177.201 253.943c-4.142 0-7.5 3.358-7.5 7.5v12.858c0 4.142 3.358 7.5 7.5 7.5s7.5-3.358 7.5-7.5v-12.858c0-4.142-3.358-7.5-7.5-7.5z"/><path d="m339.953 253.943c-4.142 0-7.5 3.358-7.5 7.5v12.858c0 4.142 3.358 7.5 7.5 7.5s7.5-3.358 7.5-7.5v-12.858c0-4.142-3.358-7.5-7.5-7.5z"/><path d="m277.679 268.036c-12.498 8.222-25.678 8.334-38.169.022-3.448-2.296-8.104-1.36-10.399 2.089-2.294 3.448-1.359 8.104 2.089 10.398 9.164 6.098 18.223 9.147 27.306 9.147 9.073 0 18.169-3.042 27.417-9.125 3.46-2.276 4.42-6.927 2.144-10.388-2.277-3.461-6.928-4.42-10.388-2.143z"/></svg>