<?xml version="1.0" standalone="no"?><!DOCTYPE svg PUBLIC "-//W3C//DTD SVG 1.1//EN" "http://www.w3.org/Graphics/SVG/1.1/DTD/svg11.dtd"><svg class="icon" height="512" viewBox="0 0 1024 1024" version="1.1" xmlns="http://www.w3.org/2000/svg"><path d="M0 0h1024v1024H0z" fill="#F2F4F6" /><path d="M419.84 682.666667v197.973333l88.746667 139.946667 92.16-139.946667V682.666667z" fill="#FEE1B9" /><path d="M508.586667 682.666667v334.506666l92.16-136.533333V682.666667z" fill="#FFD9AC" /><path d="M269.653333 505.173333c-3.413333-30.72 13.653333-58.026667 37.546667-61.44s44.373333 17.066667 47.786667 47.786667c3.413333 30.72-13.653333 58.026667-37.546667 58.026667-23.893333 6.826667-44.373333-13.653333-47.786667-44.373334" fill="#FEE1B9" /><path d="M703.146667 552.96c-23.893333-3.413333-37.546667-27.306667-34.133334-58.026667S692.906667 443.733333 716.8 443.733333c23.893333 3.413333 37.546667 27.306667 34.133333 58.026667s-27.306667 54.613333-47.786666 51.2" fill="#FFD9AC" /><path d="M512 252.586667s-187.733333 6.826667-187.733333 109.226666v204.8c0 40.96 64.853333 153.6 122.88 157.013334 27.306667 3.413333 68.266667 6.826667 68.266666 6.826666s37.546667-3.413333 68.266667-6.826666c58.026667-3.413333 122.88-119.466667 122.88-157.013334v-201.386666C699.733333 266.24 512 252.586667 512 252.586667" fill="#FEE1B9" /><path d="M512 252.586667s-187.733333 6.826667-187.733333 109.226666v204.8c0 40.96 64.853333 153.6 122.88 157.013334 27.306667 3.413333 68.266667 6.826667 68.266666 6.826666s37.546667-3.413333 68.266667-6.826666c58.026667-3.413333 122.88-119.466667 122.88-157.013334v-201.386666C699.733333 266.24 512 252.586667 512 252.586667" fill="#FEE1B9" /><path d="M699.733333 368.64v201.386667c0 40.96-64.853333 153.6-122.88 157.013333-27.306667 3.413333-68.266667 6.826667-68.266666 6.826667v-477.866667c0-3.413333 191.146667 10.24 191.146666 112.64" fill="#FFD9AC" /><path d="M426.666667 750.933333c-6.826667-27.306667-6.826667-20.48-6.826667 6.826667 0 81.92-191.146667 47.786667-245.76 109.226667-20.48 27.306667-37.546667 95.573333-51.2 157.013333H512v-201.386667s-68.266667-17.066667-85.333333-71.68z" fill="#FEE1B9" /><path d="M587.093333 771.413333c-13.653333 30.72-78.506667 34.133333-78.506666 34.133334V1024h382.293333c-13.653333-61.44-30.72-129.706667-51.2-157.013333-51.2-64.853333-245.76-27.306667-245.76-109.226667 6.826667-27.306667-3.413333 3.413333-6.826667 13.653333z" fill="#FFD9AC" /><path d="M170.666667 870.4c-17.066667 23.893333-34.133333 88.746667-44.373334 153.6H512v-197.973333l-112.64-30.72c-3.413333 0-187.733333 23.893333-228.693333 75.093333z" fill="#D0D4D7" /><path d="M512 826.026667V1024h389.12c-10.24-61.44-27.306667-129.706667-44.373333-153.6-40.96-51.2-228.693333-78.506667-228.693334-78.506667l-116.053333 34.133334z" fill="#B9C7D0" /><path d="M512 812.373333L471.04 853.333333l27.306667 23.893334-27.306667 146.773333h78.506667l-27.306667-146.773333 27.306667-23.893334z" fill="#436B85" /><path d="M512 812.373333h-3.413333V1024h40.96l-27.306667-146.773333 27.306667-23.893334z" fill="#315D76" /><path d="M512 812.373333l92.16-47.786666 47.786667 30.72-78.506667 109.226666z" fill="#D0D4D7" /><path d="M512 812.373333l-92.16-47.786666-47.786667 30.72 92.16 109.226666zM508.586667 665.6c23.893333 0 44.373333-17.066667 44.373333-40.96h-92.16c0 23.893333 20.48 40.96 47.786667 40.96" fill="#FFFFFF" /><path d="M617.813333 515.413333c0-10.24-6.826667-17.066667-17.066666-17.066666s-17.066667 6.826667-17.066667 17.066666 6.826667 17.066667 17.066667 17.066667 17.066667-6.826667 17.066666-17.066667M433.493333 512c0-10.24-6.826667-17.066667-17.066666-17.066667s-17.066667 6.826667-17.066667 17.066667 6.826667 17.066667 17.066667 17.066667c10.24-3.413333 17.066667-10.24 17.066666-17.066667" fill="#726658" /><path d="M450.56 481.28c-3.413333 0-3.413333 0 0 0-6.826667-10.24-20.48-13.653333-30.72-13.653333-13.653333 0-23.893333 3.413333-30.72 13.653333h-3.413333V477.866667c6.826667-10.24 20.48-13.653333 34.133333-13.653334s27.306667 6.826667 34.133333 13.653334l-3.413333 3.413333M631.466667 481.28c-6.826667-10.24-20.48-13.653333-30.72-13.653333s-23.893333 3.413333-30.72 13.653333h-3.413334V477.866667c6.826667-10.24 20.48-13.653333 34.133334-13.653334s27.306667 6.826667 34.133333 13.653334l-3.413333 3.413333c3.413333 0 3.413333 0 0 0M303.786667 484.693333h17.066666l23.893334-167.253333s-54.613333-20.48-64.853334 44.373333c-13.653333 64.853333 23.893333 122.88 23.893334 122.88M706.56 484.693333h-17.066667l-23.893333-167.253333s54.613333-20.48 64.853333 44.373333c13.653333 64.853333-23.893333 122.88-23.893333 122.88" fill="#61402F" /><path d="M324.266667 334.506667s78.506667 61.44 184.32 61.44 208.213333-34.133333 252.586666-122.88c-3.413333 0-81.92-13.653333-180.906666-88.746667-126.293333-98.986667-358.4 44.373333-256 150.186667" fill="#61402F" /></svg>